<svg width="52" height="52" viewBox="0 0 52 52" fill="none" xmlns="http://www.w3.org/2000/svg">
<path fill-rule="evenodd" clip-rule="evenodd" d="M34.9033 7.42137L26.3696 2.54475C26.1194 2.40175 25.8131 2.40175 25.5628 2.54475L2.81282 15.5448C2.56013 15.6894 2.40332 15.9583 2.40332 16.25V48.75C2.40332 49.1985 2.76732 49.5625 3.21582 49.5625H48.7158C49.1651 49.5625 49.5283 49.1985 49.5283 48.75V16.25C49.5283 15.9583 49.3723 15.6894 49.1196 15.5448L43.0283 12.064V3.25C43.0283 2.8015 42.6651 2.4375 42.2158 2.4375H35.7158C35.2673 2.4375 34.9033 2.8015 34.9033 3.25V7.42137ZM36.5283 8.35006L38.1842 9.29581C38.5734 9.51844 38.7091 10.0149 38.4864 10.4049C38.2638 10.7941 37.7674 10.9298 37.3782 10.7071L25.9658 4.186L4.02832 16.7212V47.9375H47.9033V16.7212L41.8128 13.2413C41.5601 13.0967 41.4033 12.8269 41.4033 12.5361V4.0625H36.5283V8.35006ZM37.4156 13.7126L26.4029 7.41975C26.1535 7.27675 25.8464 7.27675 25.5969 7.41975L6.90944 18.0984C6.65594 18.2431 6.49995 18.512 6.49995 18.8037V45.5C6.49995 45.9485 6.86395 46.3125 7.31245 46.3125H44.6874C45.1359 46.3125 45.4999 45.9485 45.4999 45.5V18.8037C45.4999 18.512 45.3439 18.2431 45.0904 18.0984L39.7515 15.0475C39.3623 14.8249 38.8651 14.9598 38.6424 15.3498C38.4206 15.7389 38.5555 16.2354 38.9447 16.458L43.8749 19.2749V44.6875H8.12495V19.2749L25.9999 9.061L36.6088 15.1231C36.9988 15.3457 37.4952 15.21 37.7178 14.8208C37.9404 14.4316 37.8048 13.9344 37.4156 13.7126ZM25.1679 17.9595C24.4919 17.6508 24.0223 16.9682 24.0223 16.1777C24.0223 15.0962 24.8998 14.2188 25.9804 14.2188C27.0619 14.2188 27.9394 15.0962 27.9394 16.1777C27.9394 16.9682 27.4689 17.6508 26.7929 17.9595V34.9432C27.3649 34.8741 27.9158 34.7303 28.4374 34.5239V27.0652C28.4374 26.9344 28.4691 26.806 28.5293 26.6898L32.5666 18.9191C32.2538 18.5721 32.0636 18.1131 32.0636 17.6101C32.0636 16.5287 32.9411 15.6512 34.0226 15.6512C35.1032 15.6512 35.9807 16.5287 35.9807 17.6101C35.9807 18.6777 35.1235 19.5479 34.0608 19.5682L30.0624 27.2634V33.6107C31.8808 32.2457 33.0663 30.0203 33.0663 27.625C33.0663 27.1765 33.4303 26.8125 33.8788 26.8125H37.3749V23.9761C36.6989 23.6673 36.2285 22.9856 36.2285 22.1943C36.2285 21.1128 37.1068 20.2353 38.1874 20.2353C39.2681 20.2353 40.1464 21.1128 40.1464 22.1943C40.1464 22.9856 39.6759 23.6673 38.9999 23.9761V26.8125H40.3259C40.7744 26.8125 41.1384 27.1765 41.1384 27.625C41.1384 28.2799 41.0946 29.2492 41.0084 29.9C40.9613 30.2575 40.6851 30.5411 40.3284 30.5971C40.3284 30.5971 38.653 30.8596 38.653 30.8587C38.5872 31.1447 38.5108 31.4283 38.4255 31.7094L39.745 32.7738C40.0261 33.0005 40.1236 33.3848 39.9855 33.7171C39.4793 34.9399 38.8155 36.0904 38.0095 37.1402C37.7901 37.4262 37.4091 37.5326 37.0727 37.4034L35.4908 36.7924C35.2901 37.0069 35.0829 37.2149 34.8684 37.4148L35.4786 38.9967C35.6086 39.3331 35.5013 39.715 35.2153 39.9344C34.1656 40.7396 33.0151 41.4042 31.7931 41.9104C31.4599 42.0477 31.0764 41.9502 30.8498 41.6699C30.8498 41.6699 29.7846 40.3496 29.7854 40.3496C29.5043 40.4357 29.2207 40.5112 28.9347 40.5779L28.6723 42.2533C28.617 42.6091 28.3334 42.8862 27.9759 42.9333C26.6646 43.1056 25.3353 43.1056 24.0239 42.9333C23.6664 42.8862 23.3829 42.6091 23.3276 42.2533L23.0652 40.5779C22.7792 40.5112 22.4956 40.4357 22.2153 40.3496L21.1501 41.6699C20.9234 41.9502 20.5399 42.0477 20.2068 41.9104C18.9848 41.4042 17.8343 40.7396 16.7846 39.9344C16.4986 39.715 16.3913 39.3331 16.5213 38.9967C16.5213 38.9967 17.1315 37.4148 17.1315 37.4156C16.917 37.2149 16.7098 37.0069 16.5091 36.7924L14.9272 37.4034C14.5908 37.5326 14.2098 37.4262 13.9904 37.1402C13.1844 36.0904 12.5206 34.9399 12.0144 33.7171C11.8763 33.3848 11.9738 33.0005 12.2549 32.7738L13.5744 31.7094C13.4891 31.4291 13.4127 31.1447 13.3469 30.8596L11.6715 30.5971C11.3148 30.5411 11.0386 30.2575 10.9914 29.9C10.9053 29.2492 10.8614 28.2799 10.8614 27.625C10.8614 27.1765 11.2254 26.8125 11.6739 26.8125H13.8124V23.9761C13.1364 23.6673 12.666 22.9856 12.666 22.1943C12.666 21.1128 13.5443 20.2353 14.6249 20.2353C15.7056 20.2353 16.5839 21.1128 16.5839 22.1943C16.5839 22.9856 16.1134 23.6673 15.4374 23.9761V26.8125H18.1211C18.5688 26.8125 18.9328 27.1765 18.9328 27.625C18.9328 30.0203 20.1191 32.2457 21.9374 33.6107V21.671L20.5952 20.3288C20.4018 20.3929 20.1938 20.4279 19.9785 20.4279C18.8979 20.4279 18.0204 19.5504 18.0204 18.4697C18.0204 17.3883 18.8979 16.5108 19.9785 16.5108C21.0599 16.5108 21.9374 17.3883 21.9374 18.4697C21.9374 18.7362 21.8838 18.9906 21.7871 19.2229L23.3244 20.7602C23.4771 20.9121 23.5624 21.1193 23.5624 21.3346V34.5239C24.0727 34.7262 24.6106 34.8676 25.1679 34.9383V17.9595ZM17.346 28.4375H12.5051C12.5141 28.6544 12.5271 28.8762 12.5425 29.0883L14.1529 29.341C14.4933 29.3938 14.7631 29.6562 14.8256 29.9951C14.9345 30.5809 15.0889 31.1569 15.2871 31.7176C15.4025 32.0426 15.3001 32.4049 15.032 32.6211L13.7588 33.6481C14.0879 34.3525 14.4771 35.0261 14.9223 35.6631L16.4482 35.0748C16.7699 34.9505 17.1348 35.0431 17.3582 35.3047C17.7449 35.7573 18.1666 36.179 18.6192 36.5658C18.8816 36.79 18.9743 37.1548 18.8499 37.4766L18.2609 39.0016C18.8979 39.4469 19.5723 39.8361 20.2759 40.1651L21.3029 38.8927C21.519 38.6246 21.8814 38.5214 22.2064 38.6368C22.7678 38.8359 23.3439 38.9902 23.9289 39.0983C24.2677 39.1609 24.5301 39.4306 24.5838 39.7719L24.8364 41.3871C25.6108 41.4546 26.3891 41.4546 27.1634 41.3871L27.4161 39.7719C27.4698 39.4306 27.7322 39.1609 28.071 39.0983C28.656 38.9902 29.2321 38.8359 29.7935 38.6368C30.1185 38.5214 30.4809 38.6246 30.697 38.8927L31.724 40.1651C32.4276 39.8361 33.102 39.4469 33.739 39.0016L33.1499 37.4766C33.0256 37.1548 33.1183 36.79 33.3807 36.5658C33.8333 36.179 34.2549 35.7573 34.6417 35.3047C34.8651 35.0431 35.2299 34.9505 35.5517 35.0748L37.0776 35.6631C37.5228 35.0261 37.912 34.3525 38.2411 33.6481L36.9679 32.6211C36.6998 32.4049 36.5974 32.0426 36.7128 31.7176C36.911 31.1569 37.0654 30.5809 37.1743 29.9951C37.2368 29.6562 37.5066 29.3938 37.847 29.341L39.4574 29.0883C39.4728 28.8762 39.4858 28.6544 39.4948 28.4375H34.6539C34.3679 31.5356 32.4674 34.2907 29.8114 35.6736C29.6911 35.7898 29.5351 35.8686 29.3613 35.8922C28.3269 36.3561 27.1911 36.6161 25.9999 36.6161C24.8088 36.6161 23.6729 36.3561 22.6386 35.8922C22.4648 35.8686 22.3088 35.7898 22.1885 35.6736C19.5324 34.2907 17.632 31.5356 17.346 28.4375ZM38.1874 21.8603C38.3719 21.8603 38.5214 22.0098 38.5214 22.1943C38.5214 22.3779 38.3719 22.5274 38.1874 22.5274C38.003 22.5274 37.8535 22.3779 37.8535 22.1943C37.8535 22.0098 38.003 21.8603 38.1874 21.8603ZM14.6249 21.8603C14.8094 21.8603 14.9589 22.0098 14.9589 22.1943C14.9589 22.3779 14.8094 22.5274 14.6249 22.5274C14.4405 22.5274 14.291 22.3779 14.291 22.1943C14.291 22.0098 14.4405 21.8603 14.6249 21.8603ZM19.9785 18.1358C20.1629 18.1358 20.3124 18.2853 20.3124 18.4697C20.3124 18.6534 20.1629 18.8029 19.9785 18.8029C19.7949 18.8029 19.6454 18.6534 19.6454 18.4697C19.6454 18.2853 19.7949 18.1358 19.9785 18.1358ZM34.0226 17.2762C34.2062 17.2762 34.3557 17.4257 34.3557 17.6101C34.3557 17.7937 34.2062 17.9432 34.0226 17.9432C33.8381 17.9432 33.6886 17.7937 33.6886 17.6101C33.6886 17.4257 33.8381 17.2762 34.0226 17.2762ZM25.9804 15.8438C26.1649 15.8438 26.3144 15.9932 26.3144 16.1777C26.3144 16.3613 26.1649 16.5108 25.9804 16.5108C25.7968 16.5108 25.6473 16.3613 25.6473 16.1777C25.6473 15.9932 25.7968 15.8438 25.9804 15.8438Z" fill="white" stroke="white" stroke-width="0.8125" stroke-miterlimit="2" stroke-linejoin="round"/>
</svg>
