<svg width="21" height="21" viewBox="0 0 21 21" fill="none" xmlns="http://www.w3.org/2000/svg">
<path fill-rule="evenodd" clip-rule="evenodd" d="M17.5 3.5C18.9498 3.5 20.125 4.67526 20.125 6.125V14.875C20.125 16.3248 18.9498 17.5 17.5 17.5H3.5C2.05026 17.5 0.875 16.3248 0.875 14.875V6.125C0.875 4.67526 2.05026 3.5 3.5 3.5H17.5ZM16.8463 5.25H4.15378L9.95785 9.83211C10.2757 10.0831 10.7243 10.0831 11.0422 9.83211L16.8463 5.25ZM2.625 6.2727V14.875C2.625 15.3583 3.01675 15.75 3.5 15.75H17.5C17.9833 15.75 18.375 15.3583 18.375 14.875V6.27272L12.1265 11.2057C11.1729 11.9586 9.82712 11.9586 8.87346 11.2057L2.625 6.2727Z" fill="white"/>
</svg>
