<svg width="40" height="40" viewBox="0 0 40 40" fill="none" xmlns="http://www.w3.org/2000/svg">
<g clip-path="url(#clip0_11_146)">
<path d="M1.05499 7.56255C0.734985 7.24255 0.578735 6.8363 0.578735 6.3438C0.578735 5.8513 0.734985 5.44505 1.05499 5.12505C1.37499 4.80505 1.78124 4.6488 2.27374 4.6488H37.9137C38.4062 4.6488 38.8125 4.80505 39.1325 5.12505C39.4525 5.44505 39.6087 5.8513 39.6087 6.3438C39.6087 6.8363 39.4525 7.24255 39.1325 7.56255C38.8125 7.88255 38.4062 8.0388 37.9137 8.0388H2.27374C1.78124 8.0388 1.37499 7.88255 1.05499 7.56255ZM39.1325 18.7038C39.4525 19.0238 39.6087 19.4301 39.6087 19.9226C39.6087 20.4151 39.4525 20.8213 39.1325 21.1413C38.8125 21.4613 38.4062 21.6176 37.9137 21.6176H2.27374C1.78124 21.6176 1.37499 21.4613 1.05499 21.1413C0.734985 20.8213 0.578735 20.4151 0.578735 19.9226C0.578735 19.4301 0.734985 19.0238 1.05499 18.7038C1.37499 18.3838 1.78124 18.2276 2.27374 18.2276H37.9137C38.4062 18.2276 38.8125 18.3838 39.1325 18.7038ZM39.1325 32.2738C39.4525 32.5938 39.6087 33.0001 39.6087 33.4926C39.6087 33.9851 39.4525 34.3913 39.1325 34.7113C38.8125 35.0313 38.4062 35.1876 37.9137 35.1876H2.27374C1.78124 35.1876 1.37499 35.0313 1.05499 34.7113C0.734985 34.3913 0.578735 33.9851 0.578735 33.4926C0.578735 33.0001 0.734985 32.5938 1.05499 32.2738C1.37499 31.9538 1.78124 31.7976 2.27374 31.7976H37.9137C38.4062 31.7976 38.8125 31.9613 39.1325 32.2738Z" fill="white" stroke="white" stroke-width="1.25"/>
</g>
<defs>
<clipPath id="clip0_11_146">
<rect width="40" height="40" fill="white"/>
</clipPath>
</defs>
</svg>
