<svg width="21" height="21" viewBox="0 0 21 21" fill="none" xmlns="http://www.w3.org/2000/svg">
<g clip-path="url(#clip0_11_670)">
<path fill-rule="evenodd" clip-rule="evenodd" d="M10.5018 -0.00012207L0.306274 10.1954L1.17034 11.057L10.5018 1.72556L19.8332 11.057L20.6961 10.1954L10.5018 -0.00012207ZM17.214 11.2364V19.7794H13.5515V13.6773H7.45057V19.7794H3.78927V11.2364H2.56761V20.9999H18.4345V11.2364H17.214ZM12.3323 14.8977V19.7807H8.671V14.8977H12.3323ZM10.5014 7.57523C11.1751 7.57523 11.7218 8.12199 11.7218 8.79566C11.7218 9.46935 11.1751 10.0161 10.5014 10.0161C9.82773 10.0161 9.28097 9.46934 9.28097 8.79566C9.28097 8.12199 9.82774 7.57523 10.5014 7.57523ZM12.9423 8.79566C12.9423 7.44953 11.8475 6.35479 10.5014 6.35479C9.15527 6.35479 8.06055 7.44953 8.06055 8.79566C8.06055 10.1418 9.15528 11.2365 10.5014 11.2365C11.8475 11.2365 12.9423 10.1418 12.9423 8.79566Z" fill="white"/>
</g>
<defs>
<clipPath id="clip0_11_670">
<rect width="21" height="21" fill="white"/>
</clipPath>
</defs>
</svg>
