<svg width="52" height="52" viewBox="0 0 52 52" fill="none" xmlns="http://www.w3.org/2000/svg">
<path d="M47.125 19.5C45.8321 19.5 44.5921 20.0136 43.6779 20.9279C42.7636 21.8421 42.25 23.0821 42.25 24.375H35.75C35.75 23.0821 35.2364 21.8421 34.3221 20.9279C33.4079 20.0136 32.1679 19.5 30.875 19.5H21.125C19.8321 19.5 18.5921 20.0136 17.6779 20.9279C16.7636 21.8421 16.25 23.0821 16.25 24.375H9.75C9.75 23.0821 9.23639 21.8421 8.32215 20.9279C7.40791 20.0136 6.16793 19.5 4.875 19.5H0V42.25H4.875C6.16793 42.25 7.40791 41.7364 8.32215 40.8221C9.23639 39.9079 9.75 38.6679 9.75 37.375H16.25C16.25 38.6679 16.7636 39.9079 17.6779 40.8221C18.5921 41.7364 19.8321 42.25 21.125 42.25H30.875C32.1679 42.25 33.4079 41.7364 34.3221 40.8221C35.2364 39.9079 35.75 38.6679 35.75 37.375H42.25C42.25 38.6679 42.7636 39.9079 43.6779 40.8221C44.5921 41.7364 45.8321 42.25 47.125 42.25H52V19.5H47.125ZM4.875 39H3.25V22.75H4.875C5.30598 22.75 5.7193 22.9212 6.02405 23.226C6.3288 23.5307 6.5 23.944 6.5 24.375V37.375C6.5 37.806 6.3288 38.2193 6.02405 38.524C5.7193 38.8288 5.30598 39 4.875 39ZM32.5 34.125V37.375C32.5 37.806 32.3288 38.2193 32.024 38.524C31.7193 38.8288 31.306 39 30.875 39H21.125C20.694 39 20.2807 38.8288 19.976 38.524C19.6712 38.2193 19.5 37.806 19.5 37.375V34.125H9.75V27.625H19.5V24.375C19.5 23.944 19.6712 23.5307 19.976 23.226C20.2807 22.9212 20.694 22.75 21.125 22.75H30.875C31.306 22.75 31.7193 22.9212 32.024 23.226C32.3288 23.5307 32.5 23.944 32.5 24.375V27.625H42.25V34.125H32.5ZM48.75 39H47.125C46.694 39 46.2807 38.8288 45.976 38.524C45.6712 38.2193 45.5 37.806 45.5 37.375V24.375C45.5 23.944 45.6712 23.5307 45.976 23.226C46.2807 22.9212 46.694 22.75 47.125 22.75H48.75V39Z" fill="white"/>
<path d="M35.75 9.75H16.25V13H24.375V16.25H27.625V13H35.75V9.75Z" fill="white"/>
</svg>
