<svg width="21" height="21" viewBox="0 0 21 21" fill="none" xmlns="http://www.w3.org/2000/svg">
<g clip-path="url(#clip0_11_686)">
<path fill-rule="evenodd" clip-rule="evenodd" d="M10.5 15.7501C13.3995 15.7501 15.75 13.3996 15.75 10.5001C15.75 7.60063 13.3995 5.25012 10.5 5.25012C7.6005 5.25012 5.25 7.60063 5.25 10.5001C5.25 13.3996 7.6005 15.7501 10.5 15.7501ZM10.5 14.0001C12.433 14.0001 14 12.4331 14 10.5001C14 8.56712 12.433 7.00012 10.5 7.00012C8.567 7.00012 7 8.56712 7 10.5001C7 12.4331 8.567 14.0001 10.5 14.0001Z" fill="white"/>
<path d="M15.75 4.37512C15.2667 4.37512 14.875 4.76688 14.875 5.25012C14.875 5.73337 15.2667 6.12512 15.75 6.12512C16.2333 6.12512 16.625 5.73337 16.625 5.25012C16.625 4.76688 16.2333 4.37512 15.75 4.37512Z" fill="white"/>
<path fill-rule="evenodd" clip-rule="evenodd" d="M1.44721 3.74167C0.875 4.86471 0.875 6.33485 0.875 9.27512V11.7251C0.875 14.6654 0.875 16.1356 1.44721 17.2585C1.95055 18.2464 2.7537 19.0496 3.74155 19.5529C4.86459 20.1251 6.33473 20.1251 9.275 20.1251H11.725C14.6653 20.1251 16.1354 20.1251 17.2584 19.5529C18.2463 19.0496 19.0494 18.2464 19.5527 17.2585C20.125 16.1356 20.125 14.6654 20.125 11.7251V9.27512C20.125 6.33485 20.125 4.86471 19.5527 3.74167C19.0494 2.75382 18.2463 1.95067 17.2584 1.44734C16.1354 0.875122 14.6653 0.875122 11.725 0.875122H9.275C6.33473 0.875122 4.86459 0.875122 3.74155 1.44734C2.7537 1.95067 1.95055 2.75382 1.44721 3.74167ZM11.725 2.62512H9.275C7.77599 2.62512 6.75697 2.62649 5.96932 2.69083C5.20209 2.75352 4.80974 2.86714 4.53604 3.0066C3.87747 3.34216 3.34204 3.87759 3.00647 4.53616C2.86702 4.80986 2.7534 5.20221 2.69071 5.96944C2.62636 6.75709 2.625 7.77611 2.625 9.27512V11.7251C2.625 13.2242 2.62636 14.2431 2.69071 15.0308C2.7534 15.7981 2.86702 16.1904 3.00647 16.4641C3.34204 17.1226 3.87747 17.6581 4.53604 17.9936C4.80974 18.1331 5.20209 18.2468 5.96932 18.3094C6.75697 18.3737 7.77599 18.3751 9.275 18.3751H11.725C13.224 18.3751 14.243 18.3737 15.0307 18.3094C15.798 18.2468 16.1903 18.1331 16.464 17.9936C17.1225 17.6581 17.6579 17.1226 17.9935 16.4641C18.133 16.1904 18.2466 15.7981 18.3093 15.0308C18.3736 14.2431 18.375 13.2242 18.375 11.7251V9.27512C18.375 7.77611 18.3736 6.75709 18.3093 5.96944C18.2466 5.20221 18.133 4.80986 17.9935 4.53616C17.6579 3.87759 17.1225 3.34216 16.464 3.0066C16.1903 2.86714 15.798 2.75352 15.0307 2.69083C14.243 2.62649 13.224 2.62512 11.725 2.62512Z" fill="white"/>
</g>
<defs>
<clipPath id="clip0_11_686">
<rect width="21" height="21" fill="white"/>
</clipPath>
</defs>
</svg>
