<svg width="52" height="52" viewBox="0 0 52 52" fill="none" xmlns="http://www.w3.org/2000/svg">
<path d="M26.5213 46.2367C27.3827 46.2367 28.0813 45.5381 28.0813 44.6767V7.27989C28.0813 6.41854 27.3827 5.71989 26.5213 5.71989H7.27977C6.41842 5.71989 5.71977 6.41854 5.71977 7.27989V44.6767C5.71977 45.5381 6.41842 46.2367 7.27977 46.2367H26.5213ZM26.5213 48.3167H7.27977C5.2697 48.3167 3.63977 46.6868 3.63977 44.6767V7.27989C3.63977 5.26982 5.2697 3.63989 7.27977 3.63989H26.5213C28.5314 3.63989 30.1613 5.26982 30.1613 7.27989V44.6767C30.1613 46.6868 28.5314 48.3167 26.5213 48.3167ZM46.256 13.8846V39.2886C46.256 41.7978 44.222 43.8319 41.7127 43.8319C39.2019 43.8319 37.1679 41.7979 37.1679 39.2886C37.1679 38.7142 36.7023 38.2486 36.1279 38.2486C35.5535 38.2486 35.0879 38.7142 35.0879 39.2886C35.0879 42.9466 38.0532 45.9119 41.7111 45.9119C45.3707 45.9119 48.336 42.9466 48.336 39.2886V13.8846C48.336 13.3102 47.8703 12.8446 47.296 12.8446C46.7216 12.8446 46.256 13.3102 46.256 13.8846Z" fill="white"/>
<path d="M37.1678 39.5807V18.7204C37.1678 18.146 36.7022 17.6804 36.1278 17.6804C35.5534 17.6804 35.0878 18.146 35.0878 18.7204V39.5807C35.0878 40.1551 35.5534 40.6207 36.1278 40.6207C36.7022 40.6207 37.1678 40.1551 37.1678 39.5807Z" fill="white"/>
<path d="M37.169 18.5612V16.8093C37.169 14.3 35.1351 12.2661 32.6258 12.2661C30.1164 12.2661 28.082 14.3 28.082 16.8093V18.5612C28.082 19.1356 28.5476 19.6012 29.122 19.6012C29.6964 19.6012 30.162 19.1356 30.162 18.5612V16.8093C30.162 15.4489 31.2651 14.3461 32.6258 14.3461C33.9863 14.3461 35.089 15.4488 35.089 16.8093V18.5612C35.089 19.1356 35.5546 19.6012 36.129 19.6012C36.7034 19.6012 37.169 19.1356 37.169 18.5612ZM47.8613 12.9482L38.9891 4.076C38.583 3.66986 37.9245 3.66986 37.5183 4.076C37.1122 4.48215 37.1122 5.14063 37.5183 5.54678L46.3906 14.419C46.7967 14.8252 47.4552 14.8252 47.8613 14.419C48.2675 14.0129 48.2675 13.3544 47.8613 12.9482ZM22.2849 14.2959C22.5721 14.2959 22.8049 14.0632 22.8049 13.7759V11.4359C22.8049 11.1487 22.5721 10.9159 22.2849 10.9159H11.4533C11.385 10.9159 11.3174 10.9294 11.2543 10.9555C11.1912 10.9816 11.1338 11.0199 11.0855 11.0682C11.0373 11.1165 10.999 11.1738 10.9728 11.2369C10.9467 11.3 10.9333 11.3676 10.9333 11.4359V13.7759C10.9333 14.0632 11.166 14.2959 11.4533 14.2959H22.2849ZM22.2849 16.3759H11.4533C10.0173 16.3759 8.85327 15.2119 8.85327 13.7759V11.4359C8.85327 9.99994 10.0173 8.83593 11.4533 8.83593H22.2849C23.7209 8.83593 24.8849 9.99994 24.8849 11.4359V13.7759C24.8849 15.2119 23.7209 16.3759 22.2849 16.3759Z" fill="white"/>
<path d="M47.1744 18.2219H44.6872C44.1129 18.2219 43.6472 17.7562 43.6472 17.1819V9.70385C43.6472 9.12946 43.1816 8.66385 42.6072 8.66385C42.0328 8.66385 41.5672 9.12946 41.5672 9.70385V17.1819C41.5672 18.905 42.9641 20.3019 44.6872 20.3019H47.1744C47.7487 20.3019 48.2144 19.8363 48.2144 19.2619C48.2144 18.6876 47.7487 18.2219 47.1744 18.2219Z" fill="white"/>
</svg>
