<svg width="52" height="52" viewBox="0 0 52 52" fill="none" xmlns="http://www.w3.org/2000/svg">
<g clip-path="url(#clip0_59_6)">
<path d="M49.807 3.0812H38.2486C37.7951 3.0812 37.4276 3.44866 37.4276 3.90223C37.4276 4.35581 37.7951 4.72327 38.2486 4.72327H49.8069C51.0161 4.72327 51.9999 3.73943 51.9999 2.53023V2.19304C52 0.983836 51.0162 0 49.807 0H2.19304C0.983836 0 0 0.983836 0 2.19314V2.53033C0 3.73953 0.983836 4.72337 2.19304 4.72337H25.1789V9.59034C24.2233 9.92926 23.5369 10.842 23.5369 11.9123C23.5369 12.0396 23.5467 12.1648 23.5653 12.2869L7.6247 20.8405C7.22424 20.4126 6.6563 20.1432 6.0254 20.1432H5.68821C4.47901 20.1432 3.49507 21.127 3.49507 22.3362V23.1333H2.13474C0 23.1333 0 25.976 0 26.9102V47.7853V49.8653C0 51.0424 0.957633 52 2.13474 52H49.8653C51.0424 52 52 51.0424 52 49.8653V47.7853V26.9103C52 25.9761 52 23.1335 49.8653 23.1335H48.5049V22.3364C48.5049 21.1272 47.5211 20.1433 46.3118 20.1433H45.9746C45.3437 20.1433 44.7759 20.4127 44.3753 20.8405L28.4347 12.287C28.4533 12.1649 28.4631 12.0397 28.4631 11.9124C28.4631 10.842 27.7766 9.92936 26.821 9.59045V4.72337H35.1834C35.637 4.72337 36.0044 4.35591 36.0044 3.90234C36.0044 3.44876 35.637 3.0813 35.1834 3.0813H2.19304C1.88927 3.0813 1.64206 2.8341 1.64206 2.53033V2.19314C1.64206 1.88937 1.88927 1.64216 2.19304 1.64216H49.8069C50.1106 1.64216 50.3578 1.88937 50.3578 2.19314V2.53033C50.3579 2.8342 50.1107 3.0812 49.807 3.0812ZM5.13723 22.3362C5.13723 22.0325 5.38444 21.7853 5.68821 21.7853H6.0254C6.32917 21.7853 6.57638 22.0325 6.57638 22.3362V23.1333H5.13723V22.3362ZM45.4236 22.3362C45.4237 22.0325 45.6708 21.7853 45.9747 21.7853H46.3119C46.6157 21.7853 46.8629 22.0325 46.8629 22.3362V23.1333H45.4236V22.3362ZM44.6025 24.7756H47.6839H49.8653C49.9458 24.7756 49.9862 24.7756 50.0707 24.9328C50.1779 25.1326 50.3578 25.6553 50.3578 26.9102V46.9642H46.3621C45.9085 46.9642 45.541 47.3318 45.541 47.7853C45.541 48.2388 45.9085 48.6063 46.3621 48.6063H50.3578V49.8653C50.3578 50.1369 50.1368 50.3579 49.8652 50.3579H2.13474C1.86316 50.3579 1.64206 50.137 1.64206 49.8653V48.6063H43.4794C43.9329 48.6063 44.3004 48.2388 44.3004 47.7853C44.3004 47.3317 43.9328 46.9642 43.4794 46.9642H1.64206V26.9103C1.64206 25.6553 1.82203 25.1327 1.92918 24.9329C2.01358 24.7756 2.0541 24.7756 2.13464 24.7756H4.3161H7.3973H44.6025ZM27.657 13.7332L43.7815 22.3852V23.1334H8.21854V22.3854L24.343 13.7332C24.7807 14.132 25.3625 14.3755 26 14.3755C26.6375 14.3755 27.2193 14.1319 27.657 13.7332ZM26 11.0913C26.4528 11.0913 26.821 11.4596 26.821 11.9124C26.821 12.3651 26.4528 12.7334 26 12.7334C25.5473 12.7334 25.1791 12.3651 25.1791 11.9124C25.1791 11.4596 25.5473 11.0913 26 11.0913Z" fill="white"/>
<path d="M5.8568 26.0547C5.40332 26.0547 5.03577 26.4222 5.03577 26.8758V44.72C5.03577 45.1736 5.40342 45.541 5.8568 45.541C6.31027 45.541 6.67783 45.1736 6.67783 44.72V26.8758C6.67793 26.4222 6.31027 26.0547 5.8568 26.0547Z" fill="white"/>
<path d="M10.8927 45.541C11.3462 45.541 11.7137 45.1736 11.7137 44.72V26.8758C11.7137 26.4222 11.3461 26.0547 10.8927 26.0547C10.4392 26.0547 10.0717 26.4222 10.0717 26.8758V44.72C10.0716 45.1736 10.4392 45.541 10.8927 45.541Z" fill="white"/>
<path d="M15.9285 45.541C16.3819 45.541 16.7495 45.1736 16.7495 44.72V26.8758C16.7495 26.4222 16.3818 26.0547 15.9285 26.0547C15.475 26.0547 15.1074 26.4222 15.1074 26.8758V44.72C15.1073 45.1736 15.475 45.541 15.9285 45.541Z" fill="white"/>
<path d="M20.9642 45.541C21.4177 45.541 21.7853 45.1736 21.7853 44.72V26.8758C21.7853 26.4222 21.4176 26.0547 20.9642 26.0547C20.5107 26.0547 20.1432 26.4222 20.1432 26.8758V44.72C20.1432 45.1736 20.5107 45.541 20.9642 45.541Z" fill="white"/>
<path d="M26 45.541C26.4536 45.541 26.821 45.1736 26.821 44.72V26.8758C26.821 26.4222 26.4535 26.0547 26 26.0547C25.5465 26.0547 25.179 26.4222 25.179 26.8758V44.72C25.179 45.1736 25.5465 45.541 26 45.541Z" fill="white"/>
<path d="M31.0358 45.541C31.4893 45.541 31.8568 45.1736 31.8568 44.72V26.8758C31.8568 26.4222 31.4893 26.0547 31.0358 26.0547C30.5822 26.0547 30.2147 26.4222 30.2147 26.8758V44.72C30.2147 45.1736 30.5822 45.541 31.0358 45.541Z" fill="white"/>
<path d="M36.0715 45.541C36.5251 45.541 36.8926 45.1736 36.8926 44.72V26.8758C36.8926 26.4222 36.525 26.0547 36.0715 26.0547C35.6179 26.0547 35.2505 26.4222 35.2505 26.8758V44.72C35.2505 45.1736 35.618 45.541 36.0715 45.541Z" fill="white"/>
<path d="M41.1073 45.541C41.5609 45.541 41.9284 45.1736 41.9284 44.72V26.8758C41.9284 26.4222 41.5609 26.0547 41.1073 26.0547C40.6538 26.0547 40.2863 26.4222 40.2863 26.8758V44.72C40.2863 45.1736 40.6539 45.541 41.1073 45.541Z" fill="white"/>
<path d="M46.1432 45.541C46.5968 45.541 46.9642 45.1736 46.9642 44.72V26.8758C46.9642 26.4222 46.5968 26.0547 46.1432 26.0547C45.6896 26.0547 45.3221 26.4222 45.3221 26.8758V44.72C45.322 45.1736 45.6896 45.541 46.1432 45.541Z" fill="white"/>
</g>
<defs>
<clipPath id="clip0_59_6">
<rect width="52" height="52" fill="white"/>
</clipPath>
</defs>
</svg>
