<svg width="21" height="21" viewBox="0 0 21 21" fill="none" xmlns="http://www.w3.org/2000/svg">
<path d="M2.625 4.8125C2.625 12.3028 8.69714 18.375 16.1875 18.375C16.5254 18.375 16.8605 18.3627 17.1923 18.3383C17.573 18.3104 17.7633 18.2965 17.9366 18.1968C18.0801 18.1142 18.2162 17.9677 18.2881 17.8185C18.375 17.6384 18.375 17.4283 18.375 17.0082V14.5431C18.375 14.1898 18.375 14.0131 18.3168 13.8617C18.2655 13.728 18.1821 13.6089 18.0739 13.5149C17.9515 13.4085 17.7854 13.3481 17.4534 13.2274L14.6475 12.207C14.2612 12.0666 14.068 11.9963 13.8848 12.0082C13.7231 12.0187 13.5677 12.0739 13.4355 12.1676C13.2857 12.2737 13.18 12.4499 12.9685 12.8025L12.25 14C9.93134 12.9499 8.05166 11.0678 7 8.75L8.19755 8.03147C8.55002 7.81999 8.72625 7.71424 8.83242 7.56443C8.92605 7.43232 8.98126 7.27682 8.99176 7.11524C9.00366 6.93199 8.9334 6.73884 8.79296 6.35254L7.77262 3.54656C7.65187 3.21454 7.59151 3.04853 7.48512 2.92609C7.39113 2.81793 7.27203 2.73451 7.13827 2.68314C6.98684 2.625 6.81019 2.625 6.4569 2.625H3.99176C3.57164 2.625 3.36158 2.625 3.18148 2.71184C3.03231 2.78378 2.88587 2.91988 2.80324 3.0634C2.70347 3.23669 2.68953 3.42704 2.66165 3.80776C2.63736 4.1395 2.625 4.47456 2.625 4.8125Z" stroke="white" stroke-width="1.75" stroke-linecap="round" stroke-linejoin="round"/>
</svg>
