<svg width="52" height="52" viewBox="0 0 52 52" fill="none" xmlns="http://www.w3.org/2000/svg">
<path d="M30.8782 36.3404C31.1485 36.3032 31.4237 36.3255 31.6845 36.4056C31.9453 36.4858 32.1854 36.6219 32.3882 36.8045C32.5909 36.9872 32.7513 37.2118 32.8582 37.4629C32.9651 37.7139 33.0159 37.9852 33.007 38.2579L33.1771 42.1222C33.1722 42.3413 33.2128 42.5591 33.2962 42.7618C33.3797 42.9646 33.5042 43.1478 33.6619 43.3C33.8197 43.4523 34.0072 43.5702 34.2128 43.6464C34.4183 43.7226 34.6374 43.7554 34.8562 43.7428C35.2724 43.7184 35.6641 43.538 35.9533 43.2376C36.2424 42.9373 36.4077 42.539 36.4162 42.1222C36.4076 39.6489 36.4162 35.2723 36.4162 32.2693L32.7589 28.3584M30.8782 44.5434V29.6617C30.878 29.0024 30.6159 28.3701 30.1497 27.9039C29.6835 27.4377 29.0513 27.1757 28.392 27.1754H23.4195C22.7605 27.1763 22.1287 27.4385 21.6628 27.9046C21.1969 28.3707 20.9349 29.0026 20.9343 29.6617V44.5445L30.8782 44.5434ZM28.4949 29.8155H23.3177V34.372H28.4949V29.8155Z" stroke="white" stroke-width="1.08333" stroke-linecap="round" stroke-linejoin="round"/>
<path d="M36.4163 32.6701C36.4154 32.9622 36.3219 33.2465 36.1492 33.482C35.9765 33.7176 35.7335 33.8923 35.4552 33.981C35.1769 34.0697 34.8777 34.0678 34.6005 33.9756C34.3234 33.8835 34.0826 33.7057 33.9129 33.468C33.7431 33.2303 33.6532 32.9449 33.656 32.6528C33.6588 32.3608 33.7541 32.0771 33.9284 31.8427C34.1026 31.6083 34.3467 31.4352 34.6256 31.3483C34.9045 31.2614 35.2037 31.2653 35.4802 31.3593M4.01917 18.2845C19.0753 25.0521 33.7318 25.1041 47.9808 18.2845" stroke="white" stroke-width="1.08333" stroke-linecap="round" stroke-linejoin="round"/>
<path d="M26 49.2917C38.8637 49.2917 49.2917 38.8636 49.2917 26C49.2917 13.1364 38.8637 2.70834 26 2.70834C13.1364 2.70834 2.70837 13.1364 2.70837 26C2.70837 38.8636 13.1364 49.2917 26 49.2917Z" stroke="white" stroke-width="1.08333" stroke-linecap="round" stroke-linejoin="round"/>
<path d="M26 23.3794L21.4283 10.2927M26 6.3754V9.2874M39.8558 12.1149L37.7975 14.1732M12.1442 12.1149L14.2025 14.1732" stroke="white" stroke-width="1.08333" stroke-linecap="round" stroke-linejoin="round"/>
</svg>
