<svg width="52" height="52" viewBox="0 0 52 52" fill="none" xmlns="http://www.w3.org/2000/svg">
<path d="M29.0469 7.71875V9.54688H45.2969V7.71875H29.0469ZM33.2109 11.1719V12.7969H41.1328V11.1719H33.2109ZM6.29688 14.625C5.71289 14.625 5.24002 14.8219 4.76592 15.2367C4.29183 15.6516 3.84394 16.3011 3.47598 17.1289C2.73995 18.785 2.33594 21.125 2.33594 23.4609C2.33594 25.7969 2.73995 28.137 3.47598 29.793C3.84394 30.6209 4.29183 31.2703 4.76582 31.6851C5.24012 32.1 5.71289 32.2969 6.29688 32.2969H6.81027L7.0134 30.4694L7.10379 29.6562H15.24L15.5333 32.2969H18.3828V14.625H6.29688ZM20.2109 14.625V19.2969H24.8828V14.625H20.2109ZM26.7109 14.625V32.2969H29.5603L29.7634 30.4694L29.8538 29.6562H37.99L38.2833 32.2969H45.2969C45.8809 32.2969 46.3537 32.0998 46.8278 31.6852C47.3019 31.2703 47.75 30.6208 48.118 29.793C48.854 28.1371 49.258 25.7972 49.258 23.4613C49.258 21.1254 48.8542 18.7854 48.1182 17.1295C47.7502 16.3016 47.3022 15.6518 46.828 15.2369C46.3539 14.8221 45.8809 14.6251 45.2969 14.625H26.7109ZM20.2109 21.125V25.7969H24.8828V21.125H20.2109ZM20.2109 27.625V32.2969H24.8828V27.625H20.2109ZM8.74016 31.4844L7.31829 44.2812H15.0255L13.6038 31.4844H8.74016ZM31.4902 31.4844L30.0683 44.2812H37.7755L36.3538 31.4844H31.4902ZM18.3828 33.2109V44.3828H20.2109V40.625H24.8828V44.3828H26.7109V33.2109H24.8828V38.7969H20.2109V33.2109H18.3828ZM41.3359 34.125V37.1719H44.3828V34.125H41.3359ZM42.0269 39C42.6204 41.0239 43.6942 42.3398 44.9029 43.1197C46.7405 44.3051 48.75 44.2812 49.5625 44.2812V42.4531C48.75 42.4531 47.2048 42.4293 45.894 41.5834C45.1274 41.0888 44.3937 40.322 43.9162 39H42.0269Z" fill="white"/>
</svg>
